#N canvas 0 0 1668 967 10;
#X obj 261 -47 snapshot~;
#X obj 285 -67 bang~;
#X obj 261 -27 + 1;
#X obj 261 -8 / 2;
#X obj 261 29 >;
#X floatatom 261 50 5 0 0 0 - - -;
#X obj 97 -35 snapshot~;
#X obj 121 -55 bang~;
#X obj 97 -15 + 1;
#X obj 97 4 / 2;
#X obj 97 41 >;
#X floatatom 97 62 5 0 0 0 - - -;
#X obj 228 114 &;
#X obj 108 310 *~;
#X floatatom 279 169 5 0 0 0 - - -;
#X obj 268 263 line~;
#X obj 286 235 pack f f;
#X obj 429 -51 snapshot~;
#X obj 453 -71 bang~;
#X obj 429 -31 + 1;
#X obj 429 -12 / 2;
#X obj 429 25 >;
#X floatatom 429 46 5 0 0 0 - - -;
#X obj 303 133 &;
#X obj 279 198 * 10;
#X obj 98 -135 inlet~;
#X obj 261 -132 inlet~;
#X obj 429 -135 inlet~;
#X obj 560 -208 inlet;
#X obj 644 -200 inlet;
#X obj 728 -175 inlet;
#X text 275 -185 audio ins;
#X text 583 -167 thresholds 0-1;
#X text 796 -70 vactrol VOL 0 -10;
#X text 931 -68 vactrol speed - ms;
#X obj 844 -109 inlet;
#X obj 947 -106 inlet;
#X obj 108 342 outlet~;
#X obj 320 265 line;
#X obj 433 340 outlet~;
#X obj 352 339 outlet;
#X text 341 358 envelope #;
#X text 429 361 envelope~;
#X obj 177 312 *~;
#X obj 248 309 *~;
#X obj 249 341 outlet~;
#X obj 177 342 outlet~;
#X text 169 372 audio outs;
#X connect 0 0 2 0;
#X connect 1 0 0 0;
#X connect 2 0 3 0;
#X connect 3 0 4 0;
#X connect 4 0 5 0;
#X connect 5 0 12 1;
#X connect 6 0 8 0;
#X connect 7 0 6 0;
#X connect 8 0 9 0;
#X connect 9 0 10 0;
#X connect 10 0 11 0;
#X connect 11 0 12 0;
#X connect 12 0 23 0;
#X connect 13 0 37 0;
#X connect 14 0 24 0;
#X connect 15 0 13 1;
#X connect 15 0 39 0;
#X connect 15 0 43 1;
#X connect 15 0 44 1;
#X connect 16 0 15 0;
#X connect 16 0 38 0;
#X connect 17 0 19 0;
#X connect 18 0 17 0;
#X connect 19 0 20 0;
#X connect 20 0 21 0;
#X connect 21 0 22 0;
#X connect 22 0 23 1;
#X connect 23 0 14 0;
#X connect 24 0 16 0;
#X connect 25 0 6 0;
#X connect 25 0 13 0;
#X connect 26 0 0 0;
#X connect 26 0 43 0;
#X connect 27 0 17 0;
#X connect 27 0 44 0;
#X connect 28 0 10 1;
#X connect 29 0 4 1;
#X connect 30 0 21 1;
#X connect 35 0 24 1;
#X connect 36 0 16 1;
#X connect 38 0 40 0;
#X connect 43 0 46 0;
#X connect 44 0 45 0;
